<svg version="1.1" xmlns="http://www.w3.org/2000/svg" xmlns:xlink="http://www.w3.org/1999/xlink" width="759.5" height="436" viewBox="0,0,759.5,436"><g transform="translate(38,17)"><g data-paper-data="{&quot;isPaintingLayer&quot;:true}" fill-rule="nonzero" stroke="none" stroke-width="0" stroke-linecap="butt" stroke-linejoin="miter" stroke-miterlimit="10" stroke-dasharray="" stroke-dashoffset="0" style="mix-blend-mode: normal"><path d="M-34,377c-2.20914,0 -4,-1.79086 -4,-4v-386c0,-2.20914 1.79086,-4 4,-4h708c2.20914,0 4,1.79086 4,4v386c0,2.20914 -1.79086,4 -4,4z" fill="#00b6ff"/><path d="M471.5,344.5c0,-41.14521 30.44464,-74.5 68,-74.5c37.55536,0 68,33.35479 68,74.5c0,41.14521 -30.44464,74.5 -68,74.5c-37.55536,0 -68,-33.35479 -68,-74.5z" fill="#2bc3ff"/><path d="M593.5,361.5c0,-24.57667 22.60962,-44.5 50.5,-44.5c27.89038,0 50.5,19.92333 50.5,44.5c0,24.57667 -22.60962,44.5 -50.5,44.5c-27.89038,0 -50.5,-19.92333 -50.5,-44.5z" fill="#2bc3ff"/><path d="M636.5,257c37.55536,0 68,19.47561 68,43.5c0,24.02439 -30.44464,43.5 -68,43.5c-37.55536,0 -68,-19.47561 -68,-43.5c0,-24.02439 30.44464,-43.5 68,-43.5z" fill="#2bc3ff"/><path d="M641.5,269.5c0,31.75637 -26.63906,57.5 -59.5,57.5c-32.86094,0 -59.5,-25.74363 -59.5,-57.5c0,-31.75637 26.63906,-57.5 59.5,-57.5c32.86094,0 59.5,25.74363 59.5,57.5z" fill="#2bc3ff"/><path d="M721.5,232c0,23.74824 -28.87763,43 -64.5,43c-35.62237,0 -64.5,-19.25176 -64.5,-43c0,-23.74824 28.87763,-43 64.5,-43c35.62237,0 64.5,19.25176 64.5,43z" fill="#2bc3ff"/></g></g></svg>