<svg version="1.1" xmlns="http://www.w3.org/2000/svg" xmlns:xlink="http://www.w3.org/1999/xlink" width="435" height="285" viewBox="0,0,435,285"><g transform="translate(152.5,-199)"><g data-paper-data="{&quot;isPaintingLayer&quot;:true}" fill-rule="nonzero" stroke="none" stroke-width="0" stroke-linecap="butt" stroke-linejoin="miter" stroke-miterlimit="10" stroke-dasharray="" stroke-dashoffset="0" style="mix-blend-mode: normal"><path d="M59.5,251.5c0,27.3381 -23.05734,49.5 -51.5,49.5c-28.44266,0 -51.5,-22.1619 -51.5,-49.5c0,-27.3381 23.05734,-49.5 51.5,-49.5c28.44266,0 51.5,22.1619 51.5,49.5z" fill="#2bc3ff"/><path d="M175.5,281.5c0,45.56349 -36.93651,82.5 -82.5,82.5c-45.56349,0 -82.5,-36.93651 -82.5,-82.5c0,-45.56349 36.93651,-82.5 82.5,-82.5c45.56349,0 82.5,36.93651 82.5,82.5z" fill="#2bc3ff"/><path d="M282.5,338.5c0,38.38379 -36.71265,69.5 -82,69.5c-45.28735,0 -82,-31.11621 -82,-69.5c0,-38.38379 36.71265,-69.5 82,-69.5c45.28735,0 82,31.11621 82,69.5z" fill="#2bc3ff"/><path d="M48.5,346.5c0,36.17465 -23.05734,65.5 -51.5,65.5c-28.44266,0 -51.5,-29.32535 -51.5,-65.5c0,-36.17465 23.05734,-65.5 51.5,-65.5c28.44266,0 51.5,29.32535 51.5,65.5z" fill="#2bc3ff"/><path d="M7.5,378c0,-27.61424 29.54921,-50 66,-50c36.45079,0 66,22.38576 66,50c0,27.61424 -29.54921,50 -66,50c-36.45079,0 -66,-22.38576 -66,-50z" fill="#2bc3ff"/><path d="M9.5,329.5c0,36.72694 -24.40048,66.5 -54.5,66.5c-30.09952,0 -54.5,-29.77306 -54.5,-66.5c0,-36.72694 24.40048,-66.5 54.5,-66.5c30.09952,0 54.5,29.77306 54.5,66.5z" fill="#2bc3ff"/><path d="M189.5,407.5c0,26.23353 -24.8482,47.5 -55.5,47.5c-30.6518,0 -55.5,-21.26647 -55.5,-47.5c0,-26.23353 24.8482,-47.5 55.5,-47.5c30.6518,0 55.5,21.26647 55.5,47.5z" fill="#2bc3ff"/><path d="M93.5,421c0,29.82338 -34.47407,54 -77,54c-42.52593,0 -77,-24.17662 -77,-54c0,-29.82338 34.47407,-54 77,-54c42.52593,0 77,24.17662 77,54z" fill="#2bc3ff"/><path d="M7.5,420c0,35.34622 -32.01164,64 -71.5,64c-39.48836,0 -71.5,-28.65378 -71.5,-64c0,-35.34622 32.01164,-64 71.5,-64c39.48836,0 71.5,28.65378 71.5,64z" fill="#2bc3ff"/><path d="M-6.5,291.5c0,42.80207 -30.22078,77.5 -67.5,77.5c-37.27922,0 -67.5,-34.69793 -67.5,-77.5c0,-42.80207 30.22078,-77.5 67.5,-77.5c37.27922,0 67.5,34.69793 67.5,77.5z" fill="#2bc3ff"/><path d="M-43.5,379c0,36.45079 -24.40048,66 -54.5,66c-30.09952,0 -54.5,-29.54921 -54.5,-66c0,-36.45079 24.40048,-66 54.5,-66c30.09952,0 54.5,29.54921 54.5,66z" fill="#2bc3ff"/><path d="M275.5,413c0,19.88225 -25.29591,36 -56.5,36c-31.20409,0 -56.5,-16.11775 -56.5,-36c0,-19.88225 25.29591,-36 56.5,-36c31.20409,0 56.5,16.11775 56.5,36z" fill="#2bc3ff"/></g></g></svg>