<svg version="1.1" xmlns="http://www.w3.org/2000/svg" xmlns:xlink="http://www.w3.org/1999/xlink" width="351" height="298" viewBox="0,0,351,298"><g transform="translate(-404.5,-177)"><g data-paper-data="{&quot;isPaintingLayer&quot;:true}" fill="#2bc3ff" fill-rule="nonzero" stroke="none" stroke-width="0" stroke-linecap="butt" stroke-linejoin="miter" stroke-miterlimit="10" stroke-dasharray="" stroke-dashoffset="0" style="mix-blend-mode: normal"><path d="M404.5,332.5c0,-41.14521 30.44464,-74.5 68,-74.5c37.55536,0 68,33.35479 68,74.5c0,41.14521 -30.44464,74.5 -68,74.5c-37.55536,0 -68,-33.35479 -68,-74.5z"/><path d="M526.5,349.5c0,-24.57667 22.60962,-44.5 50.5,-44.5c27.89038,0 50.5,19.92333 50.5,44.5c0,24.57667 -22.60962,44.5 -50.5,44.5c-27.89038,0 -50.5,-19.92333 -50.5,-44.5z"/><path d="M569.5,245c37.55536,0 68,19.47561 68,43.5c0,24.02439 -30.44464,43.5 -68,43.5c-37.55536,0 -68,-19.47561 -68,-43.5c0,-24.02439 30.44464,-43.5 68,-43.5z"/><path d="M574.5,257.5c0,31.75637 -26.63906,57.5 -59.5,57.5c-32.86094,0 -59.5,-25.74363 -59.5,-57.5c0,-31.75637 26.63906,-57.5 59.5,-57.5c32.86094,0 59.5,25.74363 59.5,57.5z"/><path d="M654.5,220c0,23.74824 -28.87763,43 -64.5,43c-35.62237,0 -64.5,-19.25176 -64.5,-43c0,-23.74824 28.87763,-43 64.5,-43c35.62237,0 64.5,19.25176 64.5,43z"/><path d="M736.5,288c0,37.55536 -29.77306,68 -66.5,68c-36.72694,0 -66.5,-30.44464 -66.5,-68c0,-37.55536 29.77306,-68 66.5,-68c36.72694,0 66.5,30.44464 66.5,68z"/><path d="M589.5,380c0,-40.86907 30.89235,-74 69,-74c38.10765,0 69,33.13093 69,74c0,40.86907 -30.89235,74 -69,74c-38.10765,0 -69,-33.13093 -69,-74z"/><path d="M509.5,409c0,-36.45079 19.69947,-66 44,-66c24.30053,0 44,29.54921 44,66c0,36.45079 -19.69947,66 -44,66c-24.30053,0 -44,-29.54921 -44,-66z"/><path d="M667.5,339c0,-24.85281 19.69947,-45 44,-45c24.30053,0 44,20.14719 44,45c0,24.85281 -19.69947,45 -44,45c-24.30053,0 -44,-20.14719 -44,-45z"/><path d="M553.5,425c0,20.98682 -19.0279,38 -42.5,38c-23.4721,0 -42.5,-17.01318 -42.5,-38c0,-20.98682 19.0279,-38 42.5,-38c23.4721,0 42.5,17.01318 42.5,38z"/></g></g></svg>