<svg version="1.1" xmlns="http://www.w3.org/2000/svg" xmlns:xlink="http://www.w3.org/1999/xlink" width="775" height="438" viewBox="0,0,775,438"><g transform="translate(53.5,17)"><g data-paper-data="{&quot;isPaintingLayer&quot;:true}" fill-rule="nonzero" stroke="none" stroke-linecap="butt" stroke-linejoin="miter" stroke-miterlimit="10" stroke-dasharray="" stroke-dashoffset="0" style="mix-blend-mode: normal"><path d="M-34,377c-2.20914,0 -4,-1.79086 -4,-4v-386c0,-2.20914 1.79086,-4 4,-4h708c2.20914,0 4,1.79086 4,4v386c0,2.20914 -1.79086,4 -4,4z" fill="#00b6ff" stroke-width="0"/><path d="M60.5,244.5c0,27.3381 -23.05734,49.5 -51.5,49.5c-28.44266,0 -51.5,-22.1619 -51.5,-49.5c0,-27.3381 23.05734,-49.5 51.5,-49.5c28.44266,0 51.5,22.1619 51.5,49.5z" fill="#2bc3ff" stroke-width="0"/><path d="M176.5,274.5c0,45.56349 -36.93651,82.5 -82.5,82.5c-45.56349,0 -82.5,-36.93651 -82.5,-82.5c0,-45.56349 36.93651,-82.5 82.5,-82.5c45.56349,0 82.5,36.93651 82.5,82.5z" fill="#2bc3ff" stroke-width="0"/><path d="M282.5,331.5c0,38.38379 -36.71265,69.5 -82,69.5c-45.28735,0 -82,-31.11621 -82,-69.5c0,-38.38379 36.71265,-69.5 82,-69.5c45.28735,0 82,31.11621 82,69.5z" fill="#2bc3ff" stroke-width="0"/><path d="M49.5,339.5c0,36.17465 -23.05734,65.5 -51.5,65.5c-28.44266,0 -51.5,-29.32535 -51.5,-65.5c0,-36.17465 23.05734,-65.5 51.5,-65.5c28.44266,0 51.5,29.32535 51.5,65.5z" fill="#2bc3ff" stroke-width="0"/><path d="M7.5,371c0,-27.61424 29.54921,-50 66,-50c36.45079,0 66,22.38576 66,50c0,27.61424 -29.54921,50 -66,50c-36.45079,0 -66,-22.38576 -66,-50z" fill="#2bc3ff" stroke-width="0"/><path d="M471.5,344.5c0,-41.14521 30.44464,-74.5 68,-74.5c37.55536,0 68,33.35479 68,74.5c0,41.14521 -30.44464,74.5 -68,74.5c-37.55536,0 -68,-33.35479 -68,-74.5z" fill="#2bc3ff" stroke-width="0"/><path d="M593.5,361.5c0,-24.57667 22.60962,-44.5 50.5,-44.5c27.89038,0 50.5,19.92333 50.5,44.5c0,24.57667 -22.60962,44.5 -50.5,44.5c-27.89038,0 -50.5,-19.92333 -50.5,-44.5z" fill="#2bc3ff" stroke-width="0"/><path d="M636.5,257c37.55536,0 68,19.47561 68,43.5c0,24.02439 -30.44464,43.5 -68,43.5c-37.55536,0 -68,-19.47561 -68,-43.5c0,-24.02439 30.44464,-43.5 68,-43.5z" fill="#2bc3ff" stroke-width="0"/><path d="M641.5,269.5c0,31.75637 -26.63906,57.5 -59.5,57.5c-32.86094,0 -59.5,-25.74363 -59.5,-57.5c0,-31.75637 26.63906,-57.5 59.5,-57.5c32.86094,0 59.5,25.74363 59.5,57.5z" fill="#2bc3ff" stroke-width="0"/><path d="M721.5,232c0,23.74824 -28.87763,43 -64.5,43c-35.62237,0 -64.5,-19.25176 -64.5,-43c0,-23.74824 28.87763,-43 64.5,-43c35.62237,0 64.5,19.25176 64.5,43z" fill="#2bc3ff" stroke-width="0"/><text transform="translate(260.1,226.69571) scale(4.0473,4.0473)" font-size="40" xml:space="preserve" fill="#f49cff" fill-rule="nonzero" stroke="none" stroke-width="1" stroke-linecap="butt" stroke-linejoin="miter" stroke-miterlimit="10" stroke-dasharray="" stroke-dashoffset="0" font-family="Playful" font-weight="normal" text-anchor="start" style="mix-blend-mode: normal"><tspan x="0" dy="0">H</tspan></text></g></g></svg>